<svg width="692" height="58" viewBox="0 0 692 58" fill="none" xmlns="http://www.w3.org/2000/svg">
<path d="M126.274 3.67602C137.744 3.67602 145.608 10.9622 145.608 22.2161C145.608 33.47 137.744 40.6841 126.274 40.6841H99.5821V54.1744H86.5968V3.67602H126.274ZM122.667 29.7909C126.563 29.7909 132.622 29.7909 132.622 22.2161C132.622 14.5692 126.563 14.5692 122.667 14.5692H99.5821V29.7909H122.667Z" fill="currentColor"/>
<path d="M192.39 54.1744L186.98 43.4254H156.753L151.342 54.1744H137.058L163.101 3.67602H180.631L206.746 54.1744H192.39ZM161.586 33.7586H182.146L171.902 13.2707L161.586 33.7586Z" fill="currentColor"/>
<path d="M256.2 3.67602V14.5692H231.672V54.1744H218.687V14.5692H194.159V3.67602H256.2Z" fill="currentColor"/>
<path d="M255.91 28.8531C255.91 12.1165 265.432 2.95462 287.652 2.95462C307.779 2.95462 317.879 10.6015 319.177 25.1739H305.975C304.749 17.022 298.473 13.8478 287.652 13.8478C274.45 13.8478 268.895 18.537 268.895 28.8531C268.895 39.2413 274.522 44.0026 287.652 44.0026C298.401 44.0026 304.749 40.7562 305.975 32.5322H319.177C317.879 47.1767 307.779 54.8958 287.652 54.8958C265.432 54.8958 255.91 45.6618 255.91 28.8531Z" fill="currentColor"/>
<path d="M376.573 3.67602H389.559V54.1744H376.573V34.4079H335.453V54.1744H322.468V3.67602H335.453V23.4425H376.573V3.67602Z" fill="currentColor"/>
<path d="M482.86 3.67602H496.927L477.017 54.1744H459.054L444.193 16.1563L429.26 54.1744H411.369L391.458 3.67602H405.453L420.386 43.3533L436.185 3.67602H452.128L467.999 43.4254L482.86 3.67602Z" fill="currentColor"/>
<path d="M525.6 54.8958C503.381 54.8958 493.858 45.6618 493.858 28.8531C493.858 12.1165 503.381 2.95462 525.6 2.95462C547.747 2.95462 557.342 12.1886 557.342 28.8531C557.342 45.5896 547.747 54.8958 525.6 54.8958ZM525.6 44.0026C539.09 44.0026 544.356 39.1691 544.356 28.8531C544.356 18.6091 539.162 13.8478 525.6 13.8478C512.037 13.8478 506.843 18.537 506.843 28.8531C506.843 39.2413 512.11 44.0026 525.6 44.0026Z" fill="currentColor"/>
<path d="M619.638 22.2161C619.638 30.4401 615.454 36.4999 608.673 39.1691L617.979 54.1744H602.685L594.533 40.6841H573.613V54.1744H560.627V3.67602H600.305C611.775 3.67602 619.638 10.9622 619.638 22.2161ZM573.613 14.5692V29.7909H596.698C600.593 29.7909 606.653 29.7909 606.653 22.2161C606.653 14.5692 600.593 14.5692 596.698 14.5692H573.613Z" fill="currentColor"/>
<path d="M691.126 3.67602L660.539 26.1117L691.126 54.1744H673.163L650.944 33.1815L635.434 44.5075V54.1744H622.448V3.67602H635.434V29.863L671.432 3.67602H691.126Z" fill="currentColor"/>
<path d="M26.536 46.3191L15.2005 57.6533L0 42.4728L13.6709 28.8199L0 15.1805L15.2005 0L26.5496 11.3343L24.6103 13.2574L22.6846 15.1805L36.3419 28.8199L22.6846 42.4728L26.536 46.3191Z" fill="currentColor"/>
<path d="M66.7428 28.8199L37.8851 57.6533L26.536 46.3191L28.4753 44.3959L44.0582 28.8199L26.5496 11.3343L37.8851 0L66.7428 28.8199Z" fill="currentColor"/>
</svg>
